<svg xmlns="http://www.w3.org/2000/svg" xmlns:xlink="http://www.w3.org/1999/xlink"><marker id="a" orient="auto" overflow="visible" refX="0.0" refY="0.0"><path d="m5.77 0-8.65 5v-10z" fill-rule="evenodd" stroke="#000" stroke-width="1pt" transform="scale(-.8)"/></marker><marker id="b" orient="auto" overflow="visible" refX="0.0" refY="0.0"><path d="m5.77 0-8.65 5v-10z" fill-rule="evenodd" stroke="#000" stroke-width="1pt" transform="scale(.8)"/></marker><marker id="c" orient="auto" overflow="visible" refX="0" refY="0"><path d="m5.77 0-8.65 5v-10z" fill-rule="evenodd" stroke="#000" stroke-width="1pt" transform="scale(.8)"/></marker><g transform="translate(3.811835 2.143837)"><circle cx="50" cy="41.602001" fill="none" r="9.909349" stroke="#000" stroke-width=".181303"/><g font-family="sans-serif" font-size="2.82222" stroke-width=".264583"><text x="49.95039" y="39.124981"><tspan font-family="sans-serif" font-size="2.82222" stroke-width=".264583" text-anchor="middle" x="49.95039" y="39.124981">(i)</tspan><tspan font-family="sans-serif" font-size="2.82222" stroke-width=".264583" text-anchor="middle" x="49.95039" y="42.652756">Gather</tspan><tspan font-family="sans-serif" font-size="2.82222" stroke-width=".264583" text-anchor="middle" x="49.95039" y="46.180531">Context</tspan></text><text x="27.816219" y="47.824738"><tspan font-family="sans-serif" font-size="2.82222" stroke-width=".264583" text-anchor="middle" x="27.816219" y="47.824738">Hypothesis</tspan></text></g></g><g transform="translate(5.291667 -.335395)"><circle cx="33.51786" cy="66.509949" fill="none" r="9.909349" stroke="#000" stroke-width=".181303"/><text font-family="sans-serif" font-size="2.82222" stroke-width=".264583" x="33.468246" y="64.032928"><tspan font-family="sans-serif" font-size="2.82222" stroke-width=".264583" text-anchor="middle" x="33.468246" y="64.032928">(ii)</tspan><tspan font-family="sans-serif" font-size="2.82222" stroke-width=".264583" text-anchor="middle" x="33.468246" y="67.560707">Instrument</tspan><tspan font-family="sans-serif" font-size="2.82222" stroke-width=".264583" text-anchor="middle" x="33.468246" y="71.088478">Program</tspan></text></g><g transform="translate(-5.291667 -1.781272)"><circle cx="74.527946" cy="67.955826" fill="none" r="9.909349" stroke="#000" stroke-width=".181303"/><text font-family="sans-serif" font-size="2.82222" stroke-width=".264583" x="74.478333" y="65.478806"><tspan font-family="sans-serif" font-size="2.82222" stroke-width=".264583" text-anchor="middle" x="74.478333" y="65.478806">(iii)</tspan><tspan font-family="sans-serif" font-size="2.82222" stroke-width=".264583" text-anchor="middle" x="74.478333" y="69.006584">Test</tspan><tspan font-family="sans-serif" font-size="2.82222" stroke-width=".264583" text-anchor="middle" x="74.478333" y="72.534355">Program</tspan></text></g><g fill="none" stroke="#000" stroke-linejoin="round" stroke-width=".17499"><path d="m47.709161 70.212431s2.353394 1.074774 5.892984.938941c3.539588-.135834 5.499286-1.091648 5.499286-1.091648" marker-end="url(#b)"/><path d="m43.954845 45.675318s-2.160705 1.42301-3.925816 4.494089c-1.76511 3.071079-1.996266 5.239157-1.996266 5.239157" marker-end="url(#c)"/><path d="m64.094363 46.733652s2.160705 1.42301 3.925816 4.494089c1.76511 3.071079 1.996266 5.239157 1.996266 5.239157" marker-start="url(#a)" stroke-dasharray=".17499 .34998"/></g></svg>
